<?xml version="1.0" encoding="iso-8859-1"?>
<!DOCTYPE svg PUBLIC "-//W3C//DTD SVG 1.1//EN" "http://www.w3.org/Graphics/SVG/1.1/DTD/svg11.dtd">
<svg 
 version="1.1" xmlns="http://www.w3.org/2000/svg" xmlns:xlink="http://www.w3.org/1999/xlink" x="0px" y="0px" width="512px"
	 height="512px" viewBox="0 0 512 512" enable-background="new 0 0 512 512" xml:space="preserve"
><g id="b75708d097f2188dff6617b0f00c8f7d"><g></g><g fill="#c1d4f1"><path display="inline" d="M477.923,406.916l-9.728-55.17c-0.003-0.008-0.003-0.019-0.003-0.025l-53.77-304.907
		c-5.353-30.356-34.568-50.815-64.927-45.462L113.807,42.908c-1.107,0.195-2.173,0.489-3.253,0.746l-0.029-0.166l-51.912,9.151
		l5.4,30.63l35.977-6.344c1.936-0.341,3.912-0.515,5.875-0.515c16.327,0,30.218,11.574,33.031,27.52
		c1.553,8.793-0.467,17.677-5.685,25.013c-1.226,1.722-2.602,3.298-4.09,4.738c9.925,4.386,17.388,13.415,19.364,24.626
		c1.99,11.295-2.033,22.292-9.77,29.754c9.923,4.388,17.383,13.413,19.359,24.621c1.553,8.793-0.467,17.677-5.687,25.013
		c-1.226,1.722-2.602,3.298-4.09,4.738c9.926,4.388,17.39,13.417,19.366,24.629c1.991,11.293-2.03,22.291-9.768,29.752
		c9.919,4.387,17.377,13.413,19.353,24.619c1.553,8.797-0.467,17.679-5.687,25.016c-1.224,1.723-2.602,3.295-4.09,4.736
		c9.925,4.386,17.387,13.413,19.362,24.622c1.553,8.798-0.467,17.679-5.687,25.017c-5.168,7.265-12.853,12.117-21.636,13.668
		l-35.979,6.346l8.305,47.103c5.039,28.552,32.511,47.796,61.066,42.761l242.263-42.717
		C463.719,462.947,482.955,435.468,477.923,406.916z M431.503,447.217l-242.259,42.717c-17.175,3.028-33.611-8.48-36.638-25.655
		l31.146-5.491l-0.029-0.168c1.102-0.128,2.2-0.219,3.308-0.412l235.696-41.56c13.005-2.292,24.166-8.983,32.285-18.248
		l2.148,12.176C460.187,427.75,448.682,444.188,431.503,447.217z M51.869,137.678c-8.861,0-16.748-6.285-18.315-15.172
		c-1.759-9.97,5.083-19.587,15.201-21.371l17.855-3.149l0,0l35.976-6.342c1.1-0.193,2.198-0.288,3.278-0.288
		c8.861,0,16.748,6.285,18.315,15.17c1.759,9.968-5.083,19.585-15.201,21.369l-53.831,9.494
		C54.047,137.583,52.948,137.678,51.869,137.678z M61.452,192.049c-8.859,0-16.746-6.285-18.312-15.168
		c-1.757-9.969,5.084-19.583,15.203-21.368l17.854-3.149l0,0l35.978-6.345c1.1-0.193,2.198-0.288,3.278-0.288
		c8.861,0,16.748,6.285,18.313,15.17c1.757,9.969-5.085,19.585-15.203,21.369l-53.831,9.491
		C63.63,191.954,62.534,192.049,61.452,192.049z M71.046,246.427c-8.861,0-16.75-6.285-18.317-15.17
		c-1.759-9.969,5.081-19.585,15.199-21.37l53.834-9.49c1.102-0.193,2.198-0.289,3.28-0.289c8.859,0,16.746,6.285,18.313,15.168
		c1.759,9.968-5.083,19.583-15.201,21.367l-53.831,9.494C73.225,246.332,72.126,246.427,71.046,246.427z M80.63,300.801
		c-8.859,0-16.747-6.283-18.312-15.172c-1.757-9.968,5.084-19.583,15.203-21.367l53.831-9.49c1.102-0.193,2.199-0.288,3.28-0.288
		c8.859,0,16.747,6.283,18.312,15.171c1.757,9.968-5.084,19.583-15.203,21.367l-53.831,9.49
		C82.809,300.706,81.712,300.801,80.63,300.801z M90.219,355.176c-8.859,0-16.746-6.283-18.313-15.168
		c-1.759-9.969,5.083-19.583,15.201-21.367l17.852-3.149l0,0l35.979-6.346c1.102-0.193,2.199-0.288,3.28-0.288
		c8.859,0,16.747,6.283,18.313,15.172c1.759,9.969-5.083,19.583-15.201,21.367L93.5,354.888
		C92.397,355.081,91.301,355.176,90.219,355.176z M156.916,399.771l-53.831,9.494c-1.1,0.193-2.197,0.288-3.278,0.288
		c-8.861,0-16.748-6.287-18.315-15.172c-1.759-9.969,5.083-19.587,15.201-21.371l17.854-3.148l0,0l35.977-6.342
		c1.102-0.193,2.199-0.288,3.28-0.288c8.859,0,16.746,6.283,18.313,15.172C173.875,388.372,167.034,397.987,156.916,399.771z"></path></g></g></svg>