<?xml version="1.0" encoding="iso-8859-1"?>
<!DOCTYPE svg PUBLIC "-//W3C//DTD SVG 1.1//EN" "http://www.w3.org/Graphics/SVG/1.1/DTD/svg11.dtd">
<svg 
 version="1.1" xmlns="http://www.w3.org/2000/svg" xmlns:xlink="http://www.w3.org/1999/xlink" x="0px" y="0px" width="512px"
	 height="512px" viewBox="0 0 512 512" style="enable-background:new 0 0 512 512;" xml:space="preserve"
><g id="afcae5a789ccd549f9c6e2a2f8158108"><g></g><g fill="#ffc7c7"><path style="display: inline; fill-rule: evenodd; clip-rule: evenodd;" d="M453.468,57.854c22.576,22.577,22.576,59.176,0.004,81.75
		c-9.456,9.454-21.375,14.896-33.696,16.43l91.725,91.723l-91.725,91.721c-1.534-12.313-6.974-24.24-16.431-33.692
		c-22.572-22.577-59.172-22.577-81.744,0c-22.576,22.576-22.576,59.172-0.004,81.748c9.456,9.457,21.383,14.896,33.692,16.431
		L247.758,511.5l-91.051-91.051c-1.535,12.317-6.974,24.235-16.431,33.692c-22.572,22.572-59.174,22.572-81.75,0
		c-22.57-22.572-22.57-59.176,0.002-81.749c9.456-9.456,21.376-14.896,33.692-16.43L0.5,264.242l107.535-107.535
		c-12.317-1.537-24.24-6.976-33.696-16.433C51.766,117.7,51.766,81.103,74.341,58.526c22.575-22.57,59.174-22.57,81.747,0
		c9.456,9.457,14.896,21.379,16.434,33.695L264.242,0.5l91.047,91.051c1.539-12.315,6.978-24.24,16.435-33.696
		C394.296,35.284,430.896,35.284,453.468,57.854z"></path></g></g></svg>